<?xml version="1.0" encoding="UTF-8"?>
<svg id="Layer_2" data-name="Layer 2" xmlns="http://www.w3.org/2000/svg" viewBox="0 0 264.8 65.71">
  <defs>
    <style>
      .cls-1 {
        fill: #010101;
      }

      .cls-2 {
        fill: #231f20;
      }
    </style>
  </defs>
  <g id="Layer_1-2" data-name="Layer 1">
    <g>
      <path id="path10" class="cls-1" d="m142.08,3.59v-1.11h.75c.53,0,.83.2.83.55,0,.28-.18.55-.75.55h-.83Zm2.66,2.26l-.45-.8c-.4-.7-.5-.8-.85-.93.68-.1,1.08-.53,1.08-1.13s-.4-1.11-1.26-1.11h-2.01v3.97h.83v-1.63h.15c.35,0,.5.05.65.2.18.18.4.5.55.78l.33.65h1-.03Zm-1.96-5.1c1.71,0,3.1,1.37,3.1,3.08,0,1.71-1.37,3.1-3.08,3.1h0c-1.71,0-3.09-1.39-3.09-3.09,0-1.7,1.38-3.09,3.09-3.09h-.03ZM142.78,0c-2.12,0-3.84,1.72-3.85,3.84s1.72,3.84,3.84,3.85h0c2.12,0,3.84-1.72,3.84-3.85C146.62,1.72,144.9,0,142.78,0Zm-20.92,4.12c-6.86-.26-13.47,2.65-17.91,7.89-.46-1.02-1.07-1.95-1.83-2.76-3.19-3.59-8.29-5.28-15.15-5.28s-12.26,2.08-16.13,5.38c-2.01-3.27-6.83-5.43-12.61-5.43-7.54,0-15.77,1.08-20.67,8.94-.1-2.84-.38-4.35-1.96-6.03-1.93-2.03-5.07-2.59-8.11-2.59-5.31-.14-10.24,2.71-12.76,7.39C10.35,18.59-.25,41.55,0,52.68c.15,7.18,4.97,12.36,13.59,12.56,6.73.18,12.03-1.63,15.4-5.02,3.44,3.5,8.2,5.39,13.11,5.2,6.15,0,12.31-1.86,15.95-5.88,3.09,3.77,7.91,5.98,14.12,5.95,7.79-.05,15.13-3.66,19.92-9.8,2.56,6.96,9.04,9.72,16.13,9.72,15.52,0,22.36-10.68,28.03-27.56,1.26-3.79,2.99-10.15,3.27-15.47.45-8.87-3.29-18.26-17.66-18.26h0ZM18.59,46.57c8.04-1.41,10.05,1.51,9.8,4.17-.75,8.04-8.14,9.85-14.57,9.7-4.62-.1-8.82-2.24-8.94-7.64-.2-9.44,9.44-31.3,13.97-38.53,2.11-3.44,4.65-5.15,8.72-5.15s4.82,2.01,4.77,4.37c-.15,6.3-10.37,25.55-13.74,33.06v.03Zm26.15-7.44c-.9,2.51-1.68,5.05-2.34,7.64,2.59-.75,5.29-1.1,7.99-1.03,3.84.1,6.33,1.68,6.33,4.87,0,7.74-8.54,10-14.49,10.02-6.51,0-12.23-3.72-12.23-10.83,0-8.36,4.52-21.02,8.79-29.44,5.2-10.37,10.55-11.73,19.72-11.73,4.02,0,8.67,1.71,8.67,5.53,0,5.28-4.47,7.28-8.89,7.54-1.91.13-4.82.23-6.56.1,0,0-1.48,2.26-3.04,6.25,8.21-1.16,11.68.7,10.3,5.45-1.88,6.41-7.44,6.83-14.24,5.63h0Zm40.39-19.97c-2.24,0-3.67,1.41-4.77,2.91-2.36,3.37-7.54,16.75-8.34,22.26-.53,3.77,1.08,4.52,2.86,4.52,2.86,0,6.05-3.01,7.16-7.99,0,0-5.45-.13-3.94-4.95,1.46-4.67,4.22-5.68,8.79-5.88,9.02-.38,8.11,6.28,7.41,9.85-2.36,11.53-10.55,20.77-22.16,20.77-7.94,0-12.89-4.4-12.89-12.48,0-5.78,2.86-14.82,5.15-20.15,4.82-11.3,9.9-19.17,22.78-19.17,7.76,0,13.87,2.76,12.96,10.05-.65,5.3-3.32,8.44-8.16,8.79-1.36.13-6.88,0-5.05-5.28.65-1.83.9-3.27-1.81-3.27h0Zm48.73,9.55c-1.36,6.78-4.42,14.82-7.76,20.8-5.43,9.8-12.03,11.15-17.81,11.08-5.75-.08-12.26-2.19-12.31-11.08-.03-6.38,2.74-15.4,5.07-21.3,4.07-10.73,8.24-19.44,21.4-19.29,15.32.18,12.61,13.82,11.4,19.77v.03Zm-10.95-6.71c-.15,4.09-6.15,20.5-8.29,24.11-.93,1.56-1.96,2.86-3.84,2.86-1.63,0-2.39-1.18-2.44-2.51-.1-3.69,6.68-22.23,9.02-25.24,1-1.61,2.16-1.86,3.49-1.83,1.93,0,2.11,1.41,2.06,2.61Z"/>
      <g>
        <path class="cls-2" d="m143.9,30.58l-.32-3.68,14.03,1.62.32,3.68-14.03-1.62Z"/>
        <path class="cls-2" d="m164.48,43.93l-2.91-33.24,11.23,1.3c1.52.18,2.9,1.06,4.13,2.65,1.23,1.59,1.93,3.39,2.1,5.4l1.62,18.44c.18,2.01-.22,3.68-1.19,5.02-.97,1.34-2.22,1.92-3.74,1.74l-11.23-1.3Zm5.29-3.03l2.79.32c.78.09,1.42-.2,1.9-.88s.68-1.52.59-2.52l-1.62-18.44c-.09-1.03-.44-1.94-1.05-2.73-.61-.79-1.31-1.23-2.1-1.32l-2.79-.32,2.27,25.89Z"/>
        <path class="cls-2" d="m195.23,14.57l5.58.64,2.26,25.84c.18,2.01-.22,3.68-1.19,5.02-.97,1.34-2.22,1.92-3.74,1.74l-5.62-.65c-1.52-.18-2.91-1.05-4.14-2.63-1.24-1.58-1.94-3.38-2.12-5.42l-2.26-25.84,5.62.65,2.26,25.84c.09,1.01.44,1.91,1.05,2.71.61.8,1.3,1.25,2.07,1.34.78.09,1.42-.2,1.9-.88s.68-1.52.59-2.52l-2.26-25.84Z"/>
        <path class="cls-2" d="m209.34,49.11l-2.91-33.24,11.23,1.3c1.52.18,2.9,1.06,4.13,2.65,1.23,1.59,1.93,3.39,2.1,5.4l1.62,18.44c.18,2.01-.22,3.68-1.19,5.02s-2.22,1.92-3.74,1.74l-11.23-1.3Zm5.29-3.03l2.79.32c.78.09,1.42-.2,1.9-.88.48-.68.68-1.51.59-2.52l-1.62-18.44c-.09-1.03-.44-1.94-1.05-2.73-.61-.79-1.31-1.23-2.1-1.32l-2.79-.32,2.27,25.89Z"/>
        <path class="cls-2" d="m231.78,51.7l-2.91-33.24,14.03,1.62.32,3.68-8.41-.97.97,11.08,5.62.65.33,3.72-5.62-.65.97,11.08,8.41.97.32,3.68-14.03-1.62Z"/>
        <path class="cls-2" d="m263.15,29.74l-2.79-.32c-.47-2.51-1.46-3.85-2.98-4.03-.99-.11-1.7.11-2.14.67-.44.56-.6,1.47-.5,2.71.08.92.43,1.82,1.04,2.71l6.72,9.46c1.24,1.75,1.94,3.56,2.11,5.42l.16,1.82c.18,2.01-.22,3.68-1.19,5.02-.97,1.34-2.23,1.91-3.78,1.74l-2.79-.32c-1.86-.22-3.32-.99-4.36-2.33-1.05-1.33-1.68-3.24-1.9-5.73l2.83.33c.02.27.04.47.05.62.09,1,.45,1.81,1.08,2.41.63.6,1.29.94,1.99,1.02.99.11,1.67-.12,2.05-.71.38-.59.52-1.48.41-2.69-.08-.95-.43-1.85-1.04-2.71l-6.72-9.46c-1.24-1.72-1.94-3.53-2.11-5.42l-.16-1.82c-.18-2.01.22-3.68,1.19-5.02.97-1.34,2.23-1.91,3.78-1.74l2.79.32c3.52.41,5.61,3.09,6.27,8.05Z"/>
      </g>
      <g>
        <path class="cls-2" d="m149.25,61.47v4.02h-.94v-4.02l-2.43-5.76h1.05l1.85,4.76,1.89-4.76h1.04l-2.46,5.76Z"/>
        <path class="cls-2" d="m156.39,62.08c0,.54-.06,1.04-.17,1.48s-.27.82-.47,1.15c-.2.32-.45.57-.75.75-.3.17-.63.26-1,.26s-.7-.09-.99-.26c-.29-.17-.55-.42-.75-.75s-.37-.7-.48-1.15-.17-.93-.17-1.48.05-1.04.16-1.49c.11-.45.26-.84.46-1.16.2-.32.45-.57.75-.75.3-.17.64-.26,1.01-.26s.7.09,1,.26c.3.17.55.42.75.75.2.32.36.71.47,1.16.11.45.17.95.17,1.49Zm-.94-.02c0-.4-.03-.78-.09-1.13s-.15-.65-.27-.9-.27-.45-.45-.6c-.18-.15-.39-.22-.64-.22s-.46.07-.65.22c-.18.15-.33.35-.45.6s-.2.55-.26.9-.09.73-.09,1.13.03.78.09,1.12c.06.34.15.64.26.9.11.26.26.46.45.6.18.14.4.21.65.21s.46-.07.65-.21c.18-.14.33-.34.45-.6.11-.26.2-.56.26-.9.06-.34.09-.71.09-1.12Z"/>
        <path class="cls-2" d="m158.96,58.64v4.42c0,.21.01.43.03.64.02.22.07.41.15.59.08.18.19.33.32.44s.33.17.57.17.44-.06.61-.19.33-.29.46-.51c.12-.22.22-.46.29-.75.07-.28.1-.57.1-.88v-3.95h.91v5.12c0,.15,0,.31,0,.48,0,.17,0,.34.01.5s0,.31.01.45.01.24.02.3h-.88c-.02-.17-.03-.39-.04-.64,0-.25-.01-.48-.01-.7h-.03c-.13.46-.34.84-.64,1.13-.29.29-.66.43-1.1.43-.37,0-.67-.08-.89-.23-.23-.16-.4-.36-.52-.61-.12-.25-.2-.54-.24-.85-.04-.31-.06-.63-.06-.95v-4.42h.91Z"/>
        <path class="cls-2" d="m166.16,58.83c.27-.27.57-.4.91-.4.07,0,.13,0,.17.01l-.03.94s-.07-.02-.1-.02-.07,0-.12,0c-.23,0-.43.08-.61.23-.18.16-.33.36-.45.61-.12.25-.21.53-.27.85-.06.32-.09.63-.09.95v3.49h-.91v-5.12c0-.15,0-.31,0-.48,0-.17,0-.34-.01-.5,0-.16,0-.31-.01-.44,0-.13-.01-.24-.02-.31h.88c.02.18.03.39.04.66,0,.26.01.54.01.84h.03c.13-.6.33-1.03.59-1.3Z"/>
        <path class="cls-2" d="m173.27,55.67c-.14-.05-.27-.07-.4-.07-.18,0-.34.05-.46.14-.12.09-.22.21-.3.36s-.12.32-.15.5c-.03.19-.04.38-.04.59v1.45h1.16v.75h-1.16v6.1h-.91v-6.1h-.93v-.75h.93v-1.45c0-.7.14-1.27.43-1.71.29-.44.73-.66,1.34-.66.21,0,.4.03.57.08l-.07.76Z"/>
        <path class="cls-2" d="m177.08,65.49c0-.07-.02-.17-.02-.28,0-.11,0-.23-.01-.35,0-.12,0-.24,0-.36v-.3h-.03c-.23.98-.78,1.46-1.66,1.46-.19,0-.39-.04-.58-.11-.19-.07-.37-.19-.52-.36-.16-.17-.29-.37-.39-.63-.1-.25-.15-.56-.15-.92,0-.5.09-.9.26-1.2s.4-.54.66-.72c.27-.17.56-.29.88-.35s.62-.09.9-.09h.54v-.36c0-.6-.11-1.04-.33-1.31s-.52-.41-.9-.41c-.26,0-.5.07-.72.21-.22.14-.41.31-.57.52l-.48-.57c.21-.3.49-.54.83-.7.34-.17.68-.25,1.02-.25.72,0,1.23.23,1.53.7.3.47.46,1.16.46,2.06v2.84c0,.09,0,.21,0,.35,0,.14,0,.28.01.42,0,.14.01.28.02.4,0,.12.02.22.03.3h-.79Zm-.11-3.48h-.55c-.22,0-.44.02-.66.06-.22.04-.42.12-.59.23-.17.11-.31.27-.42.48-.11.2-.17.46-.17.79,0,.48.11.82.32,1.04.21.21.44.32.69.32s.48-.08.66-.23.32-.35.43-.59.18-.5.23-.79c.05-.29.07-.56.07-.83v-.47Z"/>
        <path class="cls-2" d="m181.87,65.49h-1.08l-1.84-6.85h.97l1.42,5.88h.03l1.35-5.88h.94l-1.8,6.85Z"/>
        <path class="cls-2" d="m189.33,62.08c0,.54-.06,1.04-.17,1.48-.11.44-.27.82-.47,1.15-.2.32-.45.57-.75.75-.3.17-.63.26-1,.26s-.7-.09-.99-.26c-.29-.17-.55-.42-.75-.75-.21-.32-.37-.7-.48-1.15-.11-.44-.17-.93-.17-1.48s.05-1.04.16-1.49c.11-.45.26-.84.46-1.16.2-.32.45-.57.75-.75s.64-.26,1.02-.26.7.09,1,.26c.3.17.55.42.75.75.2.32.36.71.47,1.16.11.45.17.95.17,1.49Zm-.94-.02c0-.4-.03-.78-.09-1.13-.06-.35-.15-.65-.27-.9s-.27-.45-.45-.6c-.18-.15-.39-.22-.64-.22s-.47.07-.65.22c-.18.15-.33.35-.45.6-.12.25-.2.55-.26.9s-.09.73-.09,1.13.03.78.09,1.12c.06.34.15.64.26.9.11.26.26.46.45.6.18.14.4.21.65.21s.46-.07.65-.21.33-.34.45-.6c.12-.26.2-.56.26-.9.06-.34.09-.71.09-1.12Z"/>
        <path class="cls-2" d="m191.89,58.64v4.42c0,.21.01.43.03.64.02.22.07.41.15.59.08.18.19.33.32.44s.33.17.57.17.43-.06.61-.19.33-.29.46-.51c.12-.22.22-.46.29-.75.07-.28.1-.57.1-.88v-3.95h.91v5.12c0,.15,0,.31,0,.48s0,.34.01.5c0,.16,0,.31.01.45s.01.24.02.3h-.88c-.02-.17-.03-.39-.04-.64,0-.25-.01-.48-.01-.7h-.03c-.13.46-.34.84-.64,1.13-.3.29-.66.43-1.11.43-.37,0-.67-.08-.89-.23-.23-.16-.4-.36-.52-.61s-.2-.54-.24-.85c-.04-.31-.06-.63-.06-.95v-4.42h.91Z"/>
        <path class="cls-2" d="m199.09,58.83c.27-.27.57-.4.91-.4.07,0,.13,0,.17.01l-.03.94s-.07-.02-.1-.02c-.03,0-.07,0-.12,0-.23,0-.44.08-.61.23-.18.16-.33.36-.45.61-.12.25-.21.53-.27.85s-.09.63-.09.95v3.49h-.91v-5.12c0-.15,0-.31,0-.48,0-.17,0-.34-.01-.5s0-.31-.01-.44-.01-.24-.02-.31h.88c.02.18.03.39.04.66,0,.26.01.54.01.84h.03c.13-.6.33-1.03.59-1.3Z"/>
        <path class="cls-2" d="m202.38,56.54c0,.19-.06.35-.18.48-.12.12-.26.19-.43.19-.18,0-.32-.06-.44-.19-.12-.12-.17-.28-.17-.48s.06-.34.17-.47c.11-.13.26-.19.44-.19s.32.06.43.19.17.29.17.47Zm-1.06,8.95v-6.85h.91v6.85h-.91Z"/>
        <path class="cls-2" d="m206.2,65.61c-.15.04-.3.06-.46.06-.48,0-.82-.17-1.02-.5s-.3-.77-.3-1.33v-4.46h-.9v-.75h.88v-1.89h.9v1.89h1.22v.75h-1.22v4.29c0,.41.06.72.18.9.12.19.3.28.54.28.08,0,.17-.01.26-.03.09-.02.17-.05.24-.08l.04.73c-.1.05-.23.09-.37.12Z"/>
        <path class="cls-2" d="m208.3,62.25c0,.38.03.72.1,1.04.07.32.16.59.28.83s.28.42.47.55c.19.13.41.2.67.2.33,0,.6-.1.81-.3.2-.2.36-.45.47-.73l.69.4c-.17.41-.41.76-.74,1.04-.33.28-.74.42-1.25.42-.76,0-1.36-.32-1.78-.97-.42-.64-.64-1.53-.64-2.66,0-.53.06-1.03.17-1.48.11-.45.27-.84.47-1.16.21-.32.46-.57.76-.75.3-.18.63-.27,1-.27.4,0,.75.09,1.03.26s.51.41.68.72c.17.3.3.66.38,1.06.08.4.12.84.12,1.3v.5h-3.69Zm2.78-.76c0-.69-.11-1.24-.32-1.66-.21-.42-.55-.63-1-.63-.27,0-.49.08-.67.24-.18.16-.33.36-.44.59-.12.23-.2.49-.25.75-.05.27-.08.5-.08.7h2.76Z"/>
        <path class="cls-2" d="m218.14,65.71c-.39,0-.73-.09-1.02-.27s-.54-.43-.74-.75-.35-.7-.45-1.15-.15-.94-.15-1.48.05-1.04.15-1.48.25-.83.46-1.15.45-.57.75-.75c.29-.17.64-.26,1.02-.26.35,0,.65.06.9.19.25.13.45.28.59.46l-.48.66c-.11-.16-.25-.28-.41-.37-.17-.09-.36-.14-.58-.14-.25,0-.46.07-.64.21s-.33.34-.45.59c-.12.25-.21.55-.27.9-.06.35-.09.73-.09,1.14s.03.78.09,1.12.15.63.27.88c.12.25.27.44.46.58.19.14.41.21.67.21.23,0,.43-.05.6-.14s.32-.23.44-.41l.41.7c-.37.47-.88.7-1.52.7Z"/>
        <path class="cls-2" d="m224.29,65.49v-4.42c0-.21-.01-.43-.03-.64-.02-.22-.07-.41-.14-.59-.07-.18-.18-.33-.33-.44-.14-.11-.33-.17-.56-.17s-.44.06-.61.19c-.18.12-.33.29-.46.51-.13.22-.23.47-.3.75-.07.28-.1.57-.1.88v3.95h-.91v-10.44h.91v4.89h.03c.12-.44.33-.81.62-1.09.29-.29.66-.43,1.1-.43.37,0,.66.08.89.23.22.16.4.36.52.61s.2.54.24.86.06.63.06.95v4.42h-.91Z"/>
        <path class="cls-2" d="m230.16,65.49c0-.07-.02-.17-.02-.28,0-.11,0-.23-.01-.35,0-.12,0-.24,0-.36v-.3h-.03c-.23.98-.78,1.46-1.66,1.46-.19,0-.39-.04-.58-.11-.19-.07-.37-.19-.52-.36-.16-.17-.29-.37-.39-.63-.1-.25-.15-.56-.15-.92,0-.5.09-.9.26-1.2.17-.3.4-.54.66-.72.27-.17.56-.29.88-.35s.62-.09.9-.09h.54v-.36c0-.6-.11-1.04-.33-1.31s-.52-.41-.9-.41c-.26,0-.5.07-.72.21-.22.14-.41.31-.57.52l-.48-.57c.21-.3.49-.54.83-.7.34-.17.68-.25,1.02-.25.72,0,1.23.23,1.53.7.3.47.46,1.16.46,2.06v2.84c0,.09,0,.21,0,.35,0,.14,0,.28.01.42,0,.14.01.28.02.4,0,.12.02.22.03.3h-.79Zm-.11-3.48h-.55c-.22,0-.44.02-.66.06-.22.04-.42.12-.59.23-.17.11-.31.27-.42.48-.11.2-.17.46-.17.79,0,.48.11.82.32,1.04.21.21.44.32.69.32s.48-.08.66-.23.32-.35.43-.59.18-.5.23-.79c.05-.29.07-.56.07-.83v-.47Z"/>
        <path class="cls-2" d="m234.43,58.83c.27-.27.57-.4.91-.4.07,0,.13,0,.17.01l-.03.94s-.07-.02-.1-.02c-.03,0-.07,0-.12,0-.23,0-.44.08-.61.23-.18.16-.33.36-.45.61-.12.25-.21.53-.27.85s-.09.63-.09.95v3.49h-.91v-5.12c0-.15,0-.31,0-.48,0-.17,0-.34-.01-.5s0-.31-.01-.44-.01-.24-.02-.31h.88c.02.18.03.39.04.66,0,.26.01.54.01.84h.03c.13-.6.33-1.03.59-1.3Z"/>
        <path class="cls-2" d="m239.44,65.49c0-.07-.02-.17-.02-.28,0-.11,0-.23-.01-.35,0-.12,0-.24,0-.36v-.3h-.03c-.23.98-.78,1.46-1.66,1.46-.19,0-.39-.04-.58-.11-.19-.07-.37-.19-.52-.36-.16-.17-.29-.37-.39-.63-.1-.25-.15-.56-.15-.92,0-.5.09-.9.26-1.2.17-.3.4-.54.66-.72.27-.17.56-.29.88-.35s.62-.09.9-.09h.54v-.36c0-.6-.11-1.04-.33-1.31s-.52-.41-.9-.41c-.26,0-.5.07-.72.21-.22.14-.41.31-.57.52l-.48-.57c.21-.3.49-.54.83-.7.34-.17.68-.25,1.02-.25.72,0,1.23.23,1.53.7.3.47.46,1.16.46,2.06v2.84c0,.09,0,.21,0,.35,0,.14,0,.28.01.42,0,.14.01.28.02.4,0,.12.02.22.03.3h-.79Zm-.11-3.48h-.55c-.22,0-.44.02-.66.06-.22.04-.42.12-.59.23-.17.11-.31.27-.42.48-.11.2-.17.46-.17.79,0,.48.11.82.32,1.04.21.21.44.32.69.32s.48-.08.66-.23.32-.35.43-.59.18-.5.23-.79c.05-.29.07-.56.07-.83v-.47Z"/>
        <path class="cls-2" d="m244.09,65.71c-.39,0-.73-.09-1.02-.27s-.54-.43-.74-.75-.35-.7-.45-1.15-.15-.94-.15-1.48.05-1.04.15-1.48.25-.83.46-1.15.45-.57.75-.75c.29-.17.64-.26,1.02-.26.35,0,.65.06.9.19.25.13.45.28.59.46l-.48.66c-.11-.16-.25-.28-.41-.37-.17-.09-.36-.14-.58-.14-.25,0-.46.07-.64.21s-.33.34-.45.59c-.12.25-.21.55-.27.9-.06.35-.09.73-.09,1.14s.03.78.09,1.12.15.63.27.88c.12.25.27.44.46.58.19.14.41.21.67.21.23,0,.43-.05.6-.14s.32-.23.44-.41l.41.7c-.37.47-.88.7-1.52.7Z"/>
        <path class="cls-2" d="m248.63,65.61c-.15.04-.3.06-.46.06-.48,0-.82-.17-1.02-.5s-.3-.77-.3-1.33v-4.46h-.9v-.75h.88v-1.89h.9v1.89h1.22v.75h-1.22v4.29c0,.41.06.72.18.9.12.19.3.28.54.28.08,0,.17-.01.26-.03.09-.02.17-.05.24-.08l.04.73c-.1.05-.23.09-.37.12Z"/>
        <path class="cls-2" d="m250.73,62.25c0,.38.03.72.1,1.04.07.32.16.59.28.83s.28.42.47.55c.19.13.41.2.67.2.33,0,.6-.1.81-.3.2-.2.36-.45.47-.73l.69.4c-.17.41-.41.76-.74,1.04-.33.28-.74.42-1.25.42-.76,0-1.36-.32-1.78-.97-.42-.64-.64-1.53-.64-2.66,0-.53.06-1.03.17-1.48.11-.45.27-.84.47-1.16.21-.32.46-.57.76-.75.3-.18.63-.27,1-.27.4,0,.75.09,1.03.26s.51.41.68.72c.17.3.3.66.38,1.06.08.4.12.84.12,1.3v.5h-3.69Zm2.78-.76c0-.69-.11-1.24-.32-1.66-.21-.42-.55-.63-1-.63-.27,0-.49.08-.67.24-.18.16-.33.36-.44.59-.12.23-.2.49-.25.75-.05.27-.08.5-.08.7h2.76Z"/>
        <path class="cls-2" d="m257.64,58.83c.27-.27.57-.4.91-.4.07,0,.13,0,.17.01l-.03.94s-.07-.02-.1-.02c-.03,0-.07,0-.12,0-.23,0-.44.08-.61.23-.18.16-.33.36-.45.61-.12.25-.21.53-.27.85s-.09.63-.09.95v3.49h-.91v-5.12c0-.15,0-.31,0-.48,0-.17,0-.34-.01-.5s0-.31-.01-.44-.01-.24-.02-.31h.88c.02.18.03.39.04.66,0,.26.01.54.01.84h.03c.13-.6.33-1.03.59-1.3Z"/>
        <path class="cls-2" d="m262.47,59.82c-.12-.2-.27-.37-.46-.49s-.42-.19-.68-.19c-.29,0-.54.11-.73.32s-.28.5-.28.85c0,.37.09.64.28.8s.46.32.83.46c.18.07.37.16.55.27.18.11.35.24.49.39.14.16.26.34.35.56.09.22.14.48.14.78,0,.67-.18,1.19-.55,1.57-.36.37-.84.56-1.42.56-.39,0-.74-.09-1.06-.27s-.59-.42-.8-.72l.55-.59c.16.24.34.44.56.59.22.15.47.23.77.23.32,0,.58-.12.78-.35.2-.23.3-.55.3-.93,0-.22-.04-.41-.11-.56-.07-.15-.17-.28-.29-.38-.12-.1-.26-.19-.41-.26-.15-.07-.31-.14-.48-.21-.18-.06-.34-.14-.5-.23-.16-.09-.31-.21-.44-.36s-.23-.32-.31-.53c-.08-.21-.12-.46-.12-.75s.05-.55.14-.79c.1-.24.23-.44.41-.61s.38-.3.6-.4.47-.14.74-.14c.39,0,.72.08,1,.23.28.15.51.35.68.59l-.54.59Z"/>
      </g>
    </g>
  </g>
</svg>