<?xml version="1.0" encoding="UTF-8"?>
<svg id="Layer_2" data-name="Layer 2" xmlns="http://www.w3.org/2000/svg" viewBox="0 0 99.68 87.27">
  <defs>
    <style>
      .cls-1 {
        fill: #010101;
      }

      .cls-2 {
        fill: #231f20;
      }
    </style>
  </defs>
  <g id="Layer_1-2" data-name="Layer 1">
    <g>
      <path id="path10" class="cls-1" d="m96.65,2.4v-.74h.5c.35,0,.55.13.55.37,0,.18-.12.37-.5.37h-.55Zm1.78,1.51l-.3-.54c-.27-.47-.34-.54-.57-.62.45-.07.72-.35.72-.75s-.27-.74-.84-.74h-1.34v2.65h.55v-1.09h.1c.23,0,.34.03.44.13.12.12.27.34.37.52l.22.44h.67-.02Zm-1.31-3.4c1.14,0,2.07.92,2.07,2.05,0,1.14-.92,2.07-2.05,2.07h0c-1.14,0-2.06-.93-2.06-2.06,0-1.14.92-2.06,2.06-2.06h-.02ZM97.12,0c-1.42,0-2.57,1.15-2.57,2.56s1.15,2.57,2.56,2.57h0c1.42,0,2.57-1.15,2.56-2.57C99.68,1.15,98.53,0,97.12,0Zm-13.97,2.75c-4.58-.18-8.99,1.77-11.96,5.27-.3-.68-.72-1.3-1.22-1.84-2.13-2.4-5.53-3.52-10.11-3.52s-8.18,1.39-10.77,3.59c-1.34-2.18-4.56-3.62-8.42-3.62-5.03,0-10.53.72-13.8,5.97-.07-1.9-.25-2.9-1.31-4.02-1.29-1.36-3.39-1.73-5.42-1.73-3.54-.1-6.84,1.81-8.52,4.93C8.7,12.41,1.62,27.74,1.79,35.17c.1,4.8,3.32,8.25,9.07,8.39,4.49.12,8.03-1.09,10.28-3.35,2.3,2.34,5.48,3.6,8.75,3.47,4.11,0,8.22-1.24,10.65-3.92,2.06,2.52,5.28,3.99,9.43,3.97,5.2-.03,10.1-2.44,13.3-6.54,1.71,4.65,6.04,6.49,10.77,6.49,10.36,0,14.93-7.13,18.72-18.4.84-2.53,2-6.78,2.18-10.33.3-5.92-2.2-12.19-11.79-12.19h0ZM14.2,31.09c5.37-.94,6.71,1.01,6.54,2.78-.5,5.37-5.43,6.57-9.73,6.47-3.09-.07-5.89-1.49-5.97-5.1-.13-6.31,6.31-20.9,9.32-25.73,1.41-2.3,3.1-3.44,5.82-3.44s3.22,1.34,3.19,2.92c-.1,4.21-6.93,17.06-9.17,22.07v.02Zm17.46-4.96c-.6,1.67-1.12,3.37-1.56,5.1,1.73-.5,3.53-.73,5.33-.69,2.57.07,4.23,1.12,4.23,3.25,0,5.17-5.7,6.67-9.68,6.69-4.34,0-8.17-2.48-8.17-7.23,0-5.58,3.02-14.04,5.87-19.66,3.47-6.93,7.04-7.83,13.17-7.83,2.68,0,5.79,1.14,5.79,3.69,0,3.52-2.99,4.86-5.94,5.03-1.27.08-3.22.15-4.38.07,0,0-.99,1.51-2.03,4.18,5.48-.77,7.8.47,6.88,3.64-1.26,4.28-4.96,4.56-9.51,3.76h0Zm26.97-13.33c-1.49,0-2.45.94-3.19,1.95-1.58,2.25-5.03,11.19-5.57,14.86-.35,2.52.72,3.02,1.91,3.02,1.91,0,4.04-2.01,4.78-5.33,0,0-3.64-.08-2.63-3.3.97-3.12,2.82-3.79,5.87-3.92,6.02-.25,5.42,4.19,4.95,6.57-1.58,7.7-7.04,13.87-14.79,13.87-5.3,0-8.6-2.93-8.6-8.34,0-3.86,1.91-9.89,3.44-13.45,3.22-7.55,6.61-12.8,15.21-12.8,5.18,0,9.26,1.84,8.65,6.71-.44,3.54-2.21,5.64-5.45,5.87-.91.08-4.6,0-3.37-3.52.44-1.22.6-2.18-1.21-2.18h0Zm32.54,6.37c-.91,4.53-2.95,9.89-5.18,13.89-3.62,6.54-8.03,7.45-11.89,7.4-3.84-.05-8.18-1.46-8.22-7.4-.02-4.26,1.83-10.28,3.39-14.22,2.72-7.16,5.5-12.98,14.29-12.88,10.23.12,8.42,9.22,7.61,13.2v.02Zm-7.31-4.48c-.1,2.73-4.11,13.69-5.53,16.1-.62,1.04-1.31,1.91-2.57,1.91-1.09,0-1.59-.79-1.63-1.68-.07-2.47,4.46-14.84,6.02-16.85.67-1.07,1.44-1.24,2.33-1.22,1.29,0,1.41.94,1.38,1.74Z"/>
      <g>
        <path class="cls-2" d="m.24,60.07l-.24-2.7,10.28,1.19.24,2.7L.24,60.07Z"/>
        <path class="cls-2" d="m15.32,69.85l-2.13-24.37,8.23.95c1.12.13,2.12.78,3.02,1.94.9,1.16,1.41,2.48,1.54,3.96l1.18,13.51c.13,1.47-.16,2.7-.87,3.68-.71.98-1.63,1.4-2.74,1.28l-8.23-.95Zm3.88-2.22l2.05.24c.57.07,1.04-.15,1.4-.64s.5-1.11.44-1.85l-1.18-13.51c-.07-.76-.32-1.43-.77-2-.45-.58-.96-.9-1.54-.97l-2.05-.24,1.66,18.97Z"/>
        <path class="cls-2" d="m37.86,48.33l4.09.47,1.66,18.94c.13,1.47-.16,2.7-.87,3.68-.71.98-1.63,1.4-2.74,1.28l-4.12-.48c-1.12-.13-2.13-.77-3.04-1.93-.91-1.15-1.42-2.48-1.56-3.97l-1.66-18.94,4.12.48,1.66,18.94c.06.74.32,1.4.77,1.99.45.59.95.91,1.51.98.57.07,1.04-.15,1.4-.64s.5-1.11.44-1.85l-1.66-18.94Z"/>
        <path class="cls-2" d="m48.2,73.65l-2.13-24.37,8.23.95c1.12.13,2.13.78,3.02,1.94.9,1.17,1.41,2.48,1.54,3.96l1.18,13.51c.13,1.47-.16,2.7-.87,3.68s-1.63,1.4-2.74,1.27l-8.23-.95Zm3.88-2.22l2.05.24c.57.07,1.04-.15,1.4-.64.36-.49.5-1.11.44-1.85l-1.18-13.51c-.07-.76-.32-1.42-.77-2-.45-.58-.96-.9-1.54-.97l-2.05-.24,1.66,18.97Z"/>
        <path class="cls-2" d="m64.64,75.54l-2.13-24.37,10.28,1.19.24,2.7-6.16-.71.71,8.12,4.12.48.24,2.73-4.12-.48.71,8.12,6.16.71.24,2.7-10.28-1.19Z"/>
        <path class="cls-2" d="m87.63,59.45l-2.05-.24c-.34-1.84-1.07-2.83-2.19-2.95-.72-.08-1.25.08-1.57.49-.32.41-.44,1.07-.36,1.98.06.67.31,1.33.76,1.98l4.93,6.94c.91,1.28,1.42,2.61,1.54,3.97l.12,1.33c.13,1.47-.16,2.7-.87,3.68-.71.98-1.63,1.4-2.77,1.27l-2.05-.24c-1.36-.16-2.43-.73-3.2-1.7-.77-.98-1.23-2.38-1.39-4.2l2.07.24c.02.2.03.35.04.46.06.74.33,1.32.79,1.76.46.44.95.69,1.46.75.72.08,1.22-.09,1.5-.52.28-.43.38-1.09.3-1.98-.06-.69-.31-1.35-.76-1.98l-4.93-6.94c-.91-1.26-1.42-2.59-1.54-3.97l-.12-1.33c-.13-1.47.16-2.7.87-3.68.71-.98,1.63-1.4,2.77-1.27l2.05.24c2.58.3,4.11,2.26,4.59,5.9Z"/>
      </g>
      <g>
        <path class="cls-2" d="m9.33,84.44v2.68h-.63v-2.68l-1.62-3.84h.7l1.24,3.18,1.26-3.18h.69l-1.64,3.84Z"/>
        <path class="cls-2" d="m14.1,84.84c0,.36-.04.69-.11.99s-.18.55-.31.77c-.14.22-.3.38-.5.5-.2.12-.42.18-.67.18s-.47-.06-.66-.18c-.2-.12-.36-.28-.5-.5s-.24-.47-.32-.77-.11-.62-.11-.99.04-.69.11-1c.07-.3.17-.56.31-.77.14-.22.3-.38.5-.5.2-.12.43-.18.68-.18s.47.06.67.18c.2.12.37.28.5.5.14.22.24.47.31.77.07.3.11.63.11,1Zm-.63-.01c0-.27-.02-.52-.06-.75s-.1-.43-.18-.6-.18-.3-.3-.4c-.12-.1-.26-.15-.43-.15s-.31.05-.43.15c-.12.1-.22.23-.3.4s-.14.37-.18.6-.06.48-.06.75.02.52.06.75c.04.23.1.43.18.6.08.17.18.3.3.4.12.1.27.14.43.14s.31-.05.43-.14c.12-.1.22-.23.3-.4.08-.17.14-.37.18-.6.04-.23.06-.48.06-.75Z"/>
        <path class="cls-2" d="m15.81,82.55v2.95c0,.14,0,.28.02.43.02.14.05.28.1.4.05.12.12.22.22.3s.22.12.38.12.29-.04.41-.12.22-.2.3-.34c.08-.14.15-.31.19-.5.05-.19.07-.38.07-.59v-2.64h.61v3.42c0,.1,0,.2,0,.32,0,.11,0,.22,0,.33s0,.21,0,.3,0,.16.01.2h-.59c-.01-.12-.02-.26-.03-.42,0-.17,0-.32,0-.47h-.02c-.09.31-.23.56-.42.75-.2.19-.44.29-.74.29-.25,0-.44-.05-.59-.16-.15-.1-.27-.24-.35-.41-.08-.17-.13-.36-.16-.57-.03-.21-.04-.42-.04-.64v-2.95h.61Z"/>
        <path class="cls-2" d="m20.61,82.68c.18-.18.38-.27.61-.27.05,0,.09,0,.11,0l-.02.63s-.05-.01-.07-.01-.05,0-.08,0c-.15,0-.29.05-.41.16-.12.1-.22.24-.3.41-.08.17-.14.35-.18.57-.04.21-.06.42-.06.63v2.33h-.61v-3.42c0-.1,0-.2,0-.32,0-.11,0-.22,0-.33,0-.11,0-.21,0-.3,0-.09,0-.16-.01-.21h.59c.01.12.02.26.03.44,0,.18,0,.36,0,.56h.02c.09-.4.22-.69.4-.87Z"/>
        <path class="cls-2" d="m25.36,80.57c-.09-.03-.18-.05-.27-.05-.12,0-.23.03-.31.09-.08.06-.15.14-.2.24s-.08.21-.1.34c-.02.13-.03.26-.03.39v.97h.77v.5h-.77v4.07h-.61v-4.07h-.62v-.5h.62v-.97c0-.47.1-.85.29-1.14.19-.29.49-.44.89-.44.14,0,.27.02.38.06l-.05.51Z"/>
        <path class="cls-2" d="m27.91,87.12s-.01-.11-.01-.18c0-.07,0-.15,0-.24,0-.08,0-.16,0-.24v-.2h-.02c-.15.65-.52.98-1.11.98-.13,0-.26-.02-.39-.07-.13-.05-.25-.13-.35-.24-.11-.11-.19-.25-.26-.42-.07-.17-.1-.37-.1-.61,0-.33.06-.6.18-.8s.26-.36.44-.48c.18-.12.37-.2.59-.24s.41-.06.6-.06h.36v-.24c0-.4-.07-.69-.22-.88s-.35-.28-.6-.28c-.17,0-.33.05-.48.14-.15.09-.27.21-.38.35l-.32-.38c.14-.2.33-.36.55-.47.23-.11.46-.17.68-.17.48,0,.82.16,1.02.47.2.31.3.77.3,1.37v1.9c0,.06,0,.14,0,.23,0,.09,0,.19,0,.28,0,.1,0,.18.01.27,0,.08.01.15.02.2h-.53Zm-.07-2.32h-.37c-.15,0-.29.01-.44.04-.15.03-.28.08-.39.16-.11.08-.21.18-.28.32-.07.14-.11.31-.11.53,0,.32.07.55.21.69.14.14.3.21.46.21s.32-.05.44-.16.22-.24.29-.4.12-.33.15-.53c.03-.19.05-.37.05-.55v-.31Z"/>
        <path class="cls-2" d="m31.1,87.12h-.72l-1.23-4.57h.65l.95,3.93h.02l.9-3.93h.63l-1.2,4.57Z"/>
        <path class="cls-2" d="m36.08,84.84c0,.36-.04.69-.11.99-.07.3-.18.55-.31.77-.14.22-.3.38-.5.5-.2.12-.42.18-.67.18s-.47-.06-.66-.18c-.2-.12-.36-.28-.5-.5-.14-.22-.24-.47-.32-.77-.07-.3-.11-.62-.11-.99s.04-.69.11-1c.07-.3.17-.56.31-.77.14-.22.3-.38.5-.5s.43-.18.68-.18.47.06.67.18c.2.12.37.28.5.5.14.22.24.47.31.77.07.3.11.63.11,1Zm-.63-.01c0-.27-.02-.52-.06-.75-.04-.23-.1-.43-.18-.6s-.18-.3-.3-.4c-.12-.1-.26-.15-.43-.15s-.31.05-.43.15c-.12.1-.22.23-.3.4-.08.17-.14.37-.18.6s-.06.48-.06.75.02.52.06.75c.04.23.1.43.18.6.08.17.18.3.3.4.12.1.27.14.43.14s.31-.05.43-.14.22-.23.3-.4c.08-.17.14-.37.18-.6.04-.23.06-.48.06-.75Z"/>
        <path class="cls-2" d="m37.8,82.55v2.95c0,.14,0,.28.02.43.02.14.05.28.1.4.05.12.12.22.22.3s.22.12.38.12.29-.04.41-.12.22-.2.3-.34c.08-.14.15-.31.19-.5.05-.19.07-.38.07-.59v-2.64h.61v3.42c0,.1,0,.2,0,.32s0,.22,0,.33c0,.11,0,.21,0,.3s0,.16.01.2h-.59c-.01-.12-.02-.26-.03-.42,0-.17,0-.32,0-.47h-.02c-.09.31-.23.56-.42.75-.2.19-.44.29-.74.29-.25,0-.44-.05-.59-.16-.15-.1-.27-.24-.35-.41s-.13-.36-.16-.57c-.03-.21-.04-.42-.04-.64v-2.95h.61Z"/>
        <path class="cls-2" d="m42.6,82.68c.18-.18.38-.27.61-.27.05,0,.09,0,.11,0l-.02.63s-.05-.01-.07-.01c-.02,0-.05,0-.08,0-.15,0-.29.05-.41.16-.12.1-.22.24-.3.41-.08.17-.14.35-.18.57s-.06.42-.06.63v2.33h-.61v-3.42c0-.1,0-.2,0-.32,0-.11,0-.22,0-.33s0-.21,0-.3,0-.16-.01-.21h.59c.01.12.02.26.03.44,0,.18,0,.36,0,.56h.02c.09-.4.22-.69.4-.87Z"/>
        <path class="cls-2" d="m44.8,81.15c0,.13-.04.24-.12.32-.08.08-.18.12-.29.12-.12,0-.21-.04-.29-.12-.08-.08-.12-.19-.12-.32s.04-.23.12-.31c.08-.09.17-.13.29-.13s.21.04.29.13.12.19.12.31Zm-.71,5.97v-4.57h.61v4.57h-.61Z"/>
        <path class="cls-2" d="m47.35,87.2c-.1.02-.2.04-.3.04-.32,0-.55-.11-.68-.33s-.2-.52-.2-.89v-2.98h-.6v-.5h.59v-1.26h.6v1.26h.81v.5h-.81v2.87c0,.28.04.48.12.6.08.13.2.19.36.19.06,0,.11,0,.18-.02.06-.02.11-.03.16-.05l.03.49c-.07.03-.15.06-.25.08Z"/>
        <path class="cls-2" d="m48.75,84.96c0,.25.02.48.06.7.04.21.11.4.19.55s.19.28.32.37c.13.09.28.13.45.13.22,0,.4-.07.54-.2.14-.14.24-.3.32-.49l.46.27c-.11.28-.28.51-.49.7-.22.19-.5.28-.83.28-.51,0-.91-.22-1.19-.65-.28-.43-.42-1.02-.42-1.78,0-.36.04-.69.11-.99.07-.3.18-.56.32-.77.14-.22.31-.38.51-.5.2-.12.42-.18.67-.18.27,0,.5.06.68.18s.34.28.46.48c.12.2.2.44.25.71.05.27.08.56.08.87v.33h-2.46Zm1.85-.51c0-.46-.07-.83-.21-1.11-.14-.28-.36-.42-.67-.42-.18,0-.33.05-.45.16-.12.11-.22.24-.3.4-.08.16-.13.32-.17.5-.03.18-.05.34-.05.47h1.84Z"/>
        <path class="cls-2" d="m55.32,87.27c-.26,0-.49-.06-.68-.18s-.36-.29-.49-.5-.23-.47-.3-.77-.1-.63-.1-.99.03-.69.1-.99.17-.55.3-.77.3-.38.5-.5c.2-.12.42-.18.68-.18.23,0,.43.04.6.13.17.09.3.19.4.3l-.32.44c-.07-.1-.17-.19-.28-.25-.11-.06-.24-.09-.39-.09-.17,0-.31.05-.43.14s-.22.23-.3.4c-.08.17-.14.37-.18.6-.04.23-.06.48-.06.76s.02.52.06.75.1.42.18.59c.08.17.18.3.31.39.13.09.28.14.45.14.15,0,.29-.03.4-.1s.21-.16.29-.27l.28.47c-.25.31-.58.47-1.01.47Z"/>
        <path class="cls-2" d="m59.43,87.12v-2.95c0-.14,0-.28-.02-.43-.02-.14-.05-.28-.1-.4-.05-.12-.12-.22-.22-.29-.1-.08-.22-.12-.37-.12s-.29.04-.41.12c-.12.08-.22.2-.31.34-.09.14-.15.31-.2.5-.05.19-.07.38-.07.59v2.64h-.61v-6.97h.61v3.26h.02c.08-.3.22-.54.41-.73.2-.19.44-.29.73-.29.25,0,.44.05.59.16.15.1.27.24.34.41s.13.36.16.57.04.42.04.63v2.95h-.61Z"/>
        <path class="cls-2" d="m63.34,87.12s-.01-.11-.01-.18c0-.07,0-.15,0-.24,0-.08,0-.16,0-.24v-.2h-.02c-.15.65-.52.98-1.11.98-.13,0-.26-.02-.39-.07-.13-.05-.25-.13-.35-.24-.11-.11-.19-.25-.26-.42-.07-.17-.1-.37-.1-.61,0-.33.06-.6.18-.8.12-.2.26-.36.44-.48.18-.12.37-.2.59-.24s.41-.06.6-.06h.36v-.24c0-.4-.07-.69-.22-.88s-.35-.28-.6-.28c-.17,0-.33.05-.48.14-.15.09-.27.21-.38.35l-.32-.38c.14-.2.33-.36.55-.47.23-.11.46-.17.68-.17.48,0,.82.16,1.02.47.2.31.3.77.3,1.37v1.9c0,.06,0,.14,0,.23,0,.09,0,.19,0,.28,0,.1,0,.18.01.27,0,.08.01.15.02.2h-.53Zm-.07-2.32h-.37c-.15,0-.29.01-.44.04-.15.03-.28.08-.39.16-.11.08-.21.18-.28.32-.07.14-.11.31-.11.53,0,.32.07.55.21.69.14.14.3.21.46.21s.32-.05.44-.16.22-.24.29-.4.12-.33.15-.53c.03-.19.05-.37.05-.55v-.31Z"/>
        <path class="cls-2" d="m66.19,82.68c.18-.18.38-.27.61-.27.05,0,.09,0,.11,0l-.02.63s-.05-.01-.07-.01c-.02,0-.05,0-.08,0-.15,0-.29.05-.41.16-.12.1-.22.24-.3.41-.08.17-.14.35-.18.57s-.06.42-.06.63v2.33h-.61v-3.42c0-.1,0-.2,0-.32,0-.11,0-.22,0-.33s0-.21,0-.3,0-.16-.01-.21h.59c.01.12.02.26.03.44,0,.18,0,.36,0,.56h.02c.09-.4.22-.69.4-.87Z"/>
        <path class="cls-2" d="m69.54,87.12s-.01-.11-.01-.18c0-.07,0-.15,0-.24,0-.08,0-.16,0-.24v-.2h-.02c-.15.65-.52.98-1.11.98-.13,0-.26-.02-.39-.07-.13-.05-.25-.13-.35-.24-.11-.11-.19-.25-.26-.42-.07-.17-.1-.37-.1-.61,0-.33.06-.6.18-.8.12-.2.26-.36.44-.48.18-.12.37-.2.59-.24s.41-.06.6-.06h.36v-.24c0-.4-.07-.69-.22-.88s-.35-.28-.6-.28c-.17,0-.33.05-.48.14-.15.09-.27.21-.38.35l-.32-.38c.14-.2.33-.36.55-.47.23-.11.46-.17.68-.17.48,0,.82.16,1.02.47.2.31.3.77.3,1.37v1.9c0,.06,0,.14,0,.23,0,.09,0,.19,0,.28,0,.1,0,.18.01.27,0,.08.01.15.02.2h-.53Zm-.07-2.32h-.37c-.15,0-.29.01-.44.04-.15.03-.28.08-.39.16-.11.08-.21.18-.28.32-.07.14-.11.31-.11.53,0,.32.07.55.21.69.14.14.3.21.46.21s.32-.05.44-.16.22-.24.29-.4.12-.33.15-.53c.03-.19.05-.37.05-.55v-.31Z"/>
        <path class="cls-2" d="m72.65,87.27c-.26,0-.49-.06-.68-.18s-.36-.29-.49-.5-.23-.47-.3-.77-.1-.63-.1-.99.03-.69.1-.99.17-.55.3-.77.3-.38.5-.5c.2-.12.42-.18.68-.18.23,0,.43.04.6.13.17.09.3.19.4.3l-.32.44c-.07-.1-.17-.19-.28-.25-.11-.06-.24-.09-.39-.09-.17,0-.31.05-.43.14s-.22.23-.3.4c-.08.17-.14.37-.18.6-.04.23-.06.48-.06.76s.02.52.06.75.1.42.18.59c.08.17.18.3.31.39.13.09.28.14.45.14.15,0,.29-.03.4-.1s.21-.16.29-.27l.28.47c-.25.31-.58.47-1.01.47Z"/>
        <path class="cls-2" d="m75.68,87.2c-.1.02-.2.04-.3.04-.32,0-.55-.11-.68-.33s-.2-.52-.2-.89v-2.98h-.6v-.5h.59v-1.26h.6v1.26h.81v.5h-.81v2.87c0,.28.04.48.12.6.08.13.2.19.36.19.06,0,.11,0,.18-.02.06-.02.11-.03.16-.05l.03.49c-.07.03-.15.06-.25.08Z"/>
        <path class="cls-2" d="m77.08,84.96c0,.25.02.48.06.7.04.21.11.4.19.55s.19.28.32.37c.13.09.28.13.45.13.22,0,.4-.07.54-.2.14-.14.24-.3.32-.49l.46.27c-.11.28-.28.51-.49.7-.22.19-.5.28-.83.28-.51,0-.91-.22-1.19-.65-.28-.43-.42-1.02-.42-1.78,0-.36.04-.69.11-.99.07-.3.18-.56.32-.77.14-.22.31-.38.51-.5.2-.12.42-.18.67-.18.27,0,.5.06.68.18s.34.28.46.48c.12.2.2.44.25.71.05.27.08.56.08.87v.33h-2.46Zm1.85-.51c0-.46-.07-.83-.21-1.11-.14-.28-.36-.42-.67-.42-.18,0-.33.05-.45.16-.12.11-.22.24-.3.4-.08.16-.13.32-.17.5-.03.18-.05.34-.05.47h1.84Z"/>
        <path class="cls-2" d="m81.69,82.68c.18-.18.38-.27.61-.27.05,0,.09,0,.11,0l-.02.63s-.05-.01-.07-.01c-.02,0-.05,0-.08,0-.15,0-.29.05-.41.16-.12.1-.22.24-.3.41-.08.17-.14.35-.18.57s-.06.42-.06.63v2.33h-.61v-3.42c0-.1,0-.2,0-.32,0-.11,0-.22,0-.33s0-.21,0-.3,0-.16-.01-.21h.59c.01.12.02.26.03.44,0,.18,0,.36,0,.56h.02c.09-.4.22-.69.4-.87Z"/>
        <path class="cls-2" d="m84.92,83.34c-.08-.14-.18-.24-.31-.33s-.28-.12-.46-.12c-.2,0-.36.07-.48.22s-.19.33-.19.57c0,.25.06.42.18.53s.31.21.55.3c.12.05.25.11.37.18.12.07.23.16.33.26.1.1.17.23.24.37.06.14.09.32.09.52,0,.45-.12.8-.36,1.05-.24.25-.56.37-.94.37-.26,0-.5-.06-.71-.18s-.39-.28-.53-.48l.37-.4c.1.16.23.29.37.39.14.1.32.15.51.15.22,0,.39-.08.52-.24.13-.16.2-.36.2-.62,0-.15-.02-.27-.07-.37-.05-.1-.11-.19-.19-.25-.08-.07-.17-.13-.27-.18-.1-.05-.21-.1-.32-.14-.12-.04-.23-.1-.34-.16-.11-.06-.2-.14-.29-.24s-.16-.22-.21-.35c-.05-.14-.08-.31-.08-.5s.03-.37.1-.53c.06-.16.16-.3.27-.41s.25-.2.4-.27.32-.1.49-.1c.26,0,.48.05.67.15.19.1.34.23.46.39l-.36.4Z"/>
      </g>
    </g>
  </g>
</svg>