<?xml version="1.0" encoding="UTF-8"?>
<svg id="Layer_2" data-name="Layer 2" xmlns="http://www.w3.org/2000/svg" viewBox="0 0 77.96 53.99">
  <defs>
    <style>
      .cls-1 {
        fill: #231f20;
      }
    </style>
  </defs>
  <g id="Layer_1-2" data-name="Layer 1">
    <path class="cls-1" d="m77.78,3.3c-.43-.91-1.51-1.3-2.42-.87l-8.95,4.22v-3.27h-4.78V0h-9.47v3.37h-6.94V0h-9.47v3.37h-6.39V0h-9.47v3.37h-6.39V0H4.02v3.37H0v31.76h9.14c-3.18,1.68-5.34,5.01-5.34,8.85,0,5.52,4.48,10,10,10s10-4.48,10-10c0-3.84-2.17-7.17-5.34-8.85h29.28c-3.18,1.68-5.34,5.01-5.34,8.85,0,5.52,4.48,10,10,10s10-4.48,10-10c0-3.84-2.17-7.17-5.34-8.85h9.36V10.59c.15-.03.29-.07.43-.13l10.07-4.74c.91-.43,1.3-1.51.87-2.42ZM13.8,49.55c-3.08,0-5.57-2.49-5.57-5.57s2.49-5.57,5.57-5.57,5.57,2.49,5.57,5.57-2.49,5.57-5.57,5.57Zm38.6,0c-3.08,0-5.57-2.49-5.57-5.57s2.49-5.57,5.57-5.57,5.57,2.49,5.57,5.57-2.49,5.57-5.57,5.57Z"/>
  </g>
</svg>